<?xml version="1.0" encoding="UTF-8"?>
<svg version="1.1" xmlns="http://www.w3.org/2000/svg" width="1024" height="1024">
<path d="M0 0 C337.92 0 675.84 0 1024 0 C1024 337.92 1024 675.84 1024 1024 C686.08 1024 348.16 1024 0 1024 C0 686.08 0 348.16 0 0 Z " fill="#FEFEFE" transform="translate(0,0)"/>
<path d="M0 0 C0.80277878 -0.00287018 1.60555756 -0.00574036 2.43266296 -0.00869751 C4.13146672 -0.01073859 5.83029396 -0.00520563 7.52905273 0.00732422 C10.11691592 0.02331513 12.7032024 0.0075105 15.29101562 -0.01171875 C16.94401384 -0.00973509 18.59701108 -0.00588888 20.25 0 C21.01895096 -0.00607269 21.78790192 -0.01214539 22.58015442 -0.0184021 C28.09598532 0.05298868 32.16145833 1.12637202 36.4831543 4.81396484 C40.92588335 10.13515215 44.25439189 15.98964289 47.63671875 22.0234375 C48.62048784 23.75419493 49.604293 25.48493257 50.58973694 27.21473694 C51.27686417 28.42108934 51.96316304 29.62791392 52.64866638 30.83518982 C56.18019164 37.04803452 59.79935114 43.20839033 63.42559814 49.36627197 C69.26224958 59.2792316 75.0388181 69.22351081 80.72607422 79.22314453 C84.03784998 85.04069762 87.40879895 90.81990058 90.81713867 96.58129883 C95.43198711 104.39731471 99.95070002 112.26899656 104.47192383 120.1394043 C108.70991767 127.50617892 112.97136595 134.86030067 117.49511719 142.05639648 C118.82421875 144.3984375 118.82421875 144.3984375 118.82421875 146.3984375 C124.1365881 141.85769722 126.97079451 136.17419374 130.26171875 130.0859375 C131.50593537 127.82318556 132.7520796 125.56149265 134 123.30078125 C134.63373535 122.15077637 135.2674707 121.00077148 135.92041016 119.81591797 C138.85452455 114.54896063 141.89584982 109.3469001 144.94921875 104.1484375 C149.2601106 96.79572028 153.54274116 89.42931572 157.76171875 82.0234375 C168.26117423 63.60016322 178.87390697 45.24189328 189.5859375 26.94140625 C191.6649863 23.3893646 193.73022782 19.83001148 195.78125 16.26171875 C196.2352417 15.47676025 196.6892334 14.69180176 197.15698242 13.88305664 C197.98632548 12.44890266 198.81111815 11.01210208 199.63012695 9.57202148 C203.53888043 2.84214521 203.53888043 2.84214521 206.82421875 0.3984375 C209.92288864 -0.1669688 212.97203713 -0.09056575 216.11328125 -0.02734375 C217.01291595 -0.02405563 217.91255066 -0.02076752 218.83944702 -0.01737976 C220.73743951 -0.00697069 222.63540043 0.01295935 224.53320312 0.04174805 C227.44548939 0.08588099 230.35695175 0.10319283 233.26953125 0.11523438 C235.1132932 0.12865618 236.95704497 0.14357853 238.80078125 0.16015625 C239.67473541 0.16754318 240.54868958 0.17493011 241.4491272 0.18254089 C247.58749478 0.28007551 247.58749478 0.28007551 249.82421875 1.3984375 C249.892614 32.17672848 249.94572577 62.95500213 249.97741474 93.73335092 C249.98116699 97.36463316 249.98504994 100.99591525 249.98901367 104.62719727 C249.9898006 105.35013911 249.99058753 106.07308095 249.99139831 106.81793012 C250.00446252 118.53327276 250.02812192 130.24857136 250.05567714 141.96388785 C250.08370316 153.97932144 250.10038906 165.99473193 250.10648423 178.01019686 C250.11023604 184.76145089 250.11928136 191.51261298 250.14140892 198.263834 C250.16170441 204.61258178 250.16806662 210.96118799 250.16354179 217.30996513 C250.16437011 219.64530836 250.17037681 221.98065611 250.18183517 224.31597137 C250.1966706 227.49429673 250.19320504 230.67208129 250.1849823 233.85041809 C250.19372082 234.78328905 250.20245935 235.71616002 250.21146268 236.6772998 C250.20548953 237.52625467 250.19951639 238.37520955 250.19336224 239.24989033 C250.19507098 240.35088942 250.19507098 240.35088942 250.19681424 241.47413093 C249.70637231 244.00706721 248.8902648 244.88220452 246.82421875 246.3984375 C243.82310822 246.67239157 241.03394247 246.7709332 238.03515625 246.7265625 C237.17612701 246.72468933 236.31709778 246.72281616 235.43203735 246.72088623 C233.61806349 246.71416727 231.80410407 246.70025583 229.99023438 246.6796875 C227.2029892 246.64847972 224.41630895 246.63871176 221.62890625 246.6328125 C219.86848264 246.62364477 218.10806481 246.61326974 216.34765625 246.6015625 C215.50915131 246.59731262 214.67064636 246.59306274 213.80673218 246.58868408 C207.94138114 246.51559989 207.94138114 246.51559989 206.82421875 245.3984375 C206.7173665 243.36334285 206.68176075 241.32449893 206.67272949 239.28662109 C206.66638088 238.3185959 206.66638088 238.3185959 206.659904 237.33101463 C206.64681293 235.15296589 206.64083843 232.97495381 206.63476562 230.796875 C206.62682842 229.24171726 206.61844088 227.68656176 206.6096344 226.13140869 C206.5915404 222.77505133 206.57653814 219.41869903 206.56385803 216.06231689 C206.54369274 210.76075058 206.51603337 205.45924003 206.48718262 200.15771484 C206.42188721 187.94645127 206.36651866 175.73514632 206.31119537 163.52383423 C206.26040548 152.33555369 206.20755591 141.14729332 206.14666986 129.95906258 C206.11824614 124.68320383 206.09467704 119.40735183 206.07474518 114.13145447 C206.06139789 110.85584403 206.0439834 107.58026459 206.02543449 104.30467987 C206.01765094 102.77962779 206.01159349 101.25456583 206.00734138 99.72949982 C206.00133302 97.65636451 205.98930404 95.58335121 205.97570801 93.51025391 C205.97055428 92.34732819 205.96540054 91.18440247 205.96009064 89.98623657 C206.1172554 87.46845458 206.1172554 87.46845458 204.82421875 86.3984375 C204.2526001 87.39133789 204.2526001 87.39133789 203.66943359 88.40429688 C178.30490221 132.44930925 178.30490221 132.44930925 168.64868164 148.10888672 C165.452508 153.31349463 162.42030933 158.59114151 159.45239258 163.9284668 C155.94013406 170.23135045 152.32856127 176.47484521 148.69921875 182.7109375 C148.12518311 183.70109863 147.55114746 184.69125977 146.9597168 185.71142578 C135.24269978 205.8049277 135.24269978 205.8049277 131.82421875 208.3984375 C128.2304394 209.0351004 124.59305654 208.86173043 120.94921875 208.8359375 C119.95535156 208.85591797 118.96148437 208.87589844 117.9375 208.89648438 C113.6962669 208.89364553 110.6848533 208.86105741 106.91015625 206.83203125 C104.270306 203.75220596 102.29099619 200.56157959 100.32421875 197.0234375 C99.44469984 195.48528266 98.56445561 193.9475424 97.68359375 192.41015625 C97.22017578 191.59466309 96.75675781 190.77916992 96.27929688 189.93896484 C93.76085956 185.54184091 91.16182843 181.1925795 88.57421875 176.8359375 C83.36705338 168.03767672 78.20920216 159.21132938 73.06445312 150.37646484 C68.03037719 141.73762096 62.94889297 133.12738477 57.85546875 124.5234375 C55.50202503 120.54754394 53.15781192 116.56635545 50.8190918 112.58178711 C47.15570382 106.34059249 43.47534087 100.10989487 39.76171875 93.8984375 C39.37918945 93.25656494 38.99666016 92.61469238 38.60253906 91.95336914 C36.93657091 89.01022995 36.93657091 89.01022995 34.82421875 86.3984375 C34.8218304 87.20480809 34.81944204 88.01117868 34.81698132 88.84198475 C34.75789299 108.44600205 34.68238268 128.04989278 34.58850384 147.65377522 C34.54350273 157.13399966 34.5040981 166.61418618 34.4777832 176.09448242 C34.45483798 184.35572576 34.42147912 192.6168495 34.37551719 200.87799805 C34.35153789 205.25384603 34.33284005 209.62957521 34.32660484 214.00548744 C34.32057516 218.12182641 34.30065267 222.23786125 34.26994324 226.35408783 C34.26112889 227.86699757 34.25744742 229.379947 34.25921059 230.89288139 C34.26085518 232.95472463 34.244236 235.01563165 34.22294617 237.0773468 C34.21603272 238.80985672 34.21603272 238.80985672 34.20897961 240.57736683 C33.82421875 243.3984375 33.82421875 243.3984375 32.54136372 245.26924419 C29.43758076 247.31028966 25.702572 246.82325096 22.10546875 246.796875 C20.82403992 246.80118027 20.82403992 246.80118027 19.51672363 246.80557251 C17.7111749 246.80761331 15.90560406 246.80208233 14.10009766 246.78955078 C11.33445863 246.77349694 8.570281 246.78939849 5.8046875 246.80859375 C4.05077802 246.80661132 2.29686945 246.80276765 0.54296875 246.796875 C-0.28521362 246.80294769 -1.113396 246.80902039 -1.9666748 246.8152771 C-7.70606833 246.74487303 -7.70606833 246.74487303 -9.89425147 245.13098431 C-11.46559764 243.00662416 -11.55154508 241.91339671 -11.55330467 239.289505 C-11.56112791 238.44936702 -11.56895116 237.60922903 -11.57701147 236.74363232 C-11.5703193 235.82058961 -11.56362714 234.8975469 -11.55673218 233.9465332 C-11.56141215 232.96603406 -11.56609212 231.98553492 -11.57091391 230.97532368 C-11.58292356 227.67481962 -11.57338328 224.37472622 -11.56396484 221.07421875 C-11.56802789 218.71413937 -11.57336825 216.35406189 -11.57989502 213.99398804 C-11.59360616 207.57263426 -11.58825427 201.1514246 -11.57875776 194.73006821 C-11.5734331 190.72235598 -11.57442695 186.71465368 -11.57722855 182.7069397 C-11.57768825 182.04212564 -11.57814794 181.37731158 -11.57862157 180.69235164 C-11.57958073 179.34189342 -11.58055337 177.99143522 -11.58153935 176.64097703 C-11.59009878 163.97075429 -11.58025046 151.30059663 -11.56413825 138.63038456 C-11.55073455 127.7532316 -11.55306249 116.87617467 -11.56689453 105.99902344 C-11.5829406 93.3748666 -11.58927476 80.75076683 -11.58005774 68.12660122 C-11.57910207 66.78104592 -11.57815896 65.43549062 -11.57722855 64.0899353 C-11.57676572 63.42785594 -11.57630289 62.76577657 -11.57582604 62.0836342 C-11.57323322 57.41271955 -11.57775943 52.74186089 -11.58466721 48.07095337 C-11.5933108 41.78697728 -11.58736267 35.50318319 -11.56998444 29.21922684 C-11.56600563 26.90808032 -11.56717729 24.59691858 -11.57377243 22.28577805 C-11.58192296 19.14042335 -11.57174493 15.99565851 -11.55673218 12.8503418 C-11.56342434 11.92729909 -11.57011651 11.00425638 -11.57701147 10.05324268 C-11.56918822 9.2131047 -11.56136498 8.37296671 -11.55330467 7.50737 C-11.55281762 6.78107234 -11.55233056 6.05477468 -11.55182874 5.30646801 C-10.36922775 -0.69394106 -5.0014475 -0.03918881 0 0 Z " fill="#070407" transform="translate(297.17578125,388.6015625)"/>
<path d="M0 0 C221.76 0 443.52 0 672 0 C672 125 672 125 668 130 C665.32934481 132.28152857 662.44330574 134.24253844 659.5625 136.25 C658.43618164 137.06210937 658.43618164 137.06210937 657.28710938 137.890625 C656.55427734 138.40625 655.82144531 138.921875 655.06640625 139.453125 C654.40584229 139.91879883 653.74527832 140.38447266 653.06469727 140.86425781 C650.67031115 142.18135421 648.7203724 142.75236235 646 143 C645.34 142.34 644.68 141.68 644 141 C644 104.37 644 67.74 644 30 C441.05 30 238.1 30 29 30 C29.03962052 172.03674505 29.03962052 172.03674505 29.09008789 314.07348633 C29.09460449 341.48181152 29.09460449 341.48181152 29.09544373 354.29374695 C29.09637917 363.28361775 29.1000596 372.27348239 29.10557556 381.26335144 C29.11192081 391.62001537 29.11484067 401.97667336 29.11344495 412.33333926 C29.11284 417.63627535 29.11382892 422.93919815 29.11921513 428.24213183 C29.12404895 433.0300802 29.1243447 437.81800575 29.12090111 442.60595512 C29.12047434 444.3437191 29.12176583 446.08148446 29.12488258 447.8192457 C29.12886069 450.17424292 29.12675406 452.52915664 29.12304783 454.88415241 C29.12342755 456.19532671 29.12380727 457.50650101 29.1241985 458.85740787 C29 462 29 462 28 465 C23.56929814 464.11746183 20.68969307 461.66549471 17.25 458.875 C16.31945801 458.12947876 16.31945801 458.12947876 15.37011719 457.36889648 C13.57248783 455.92164058 11.78450238 454.4633957 10 453 C9.13375 452.29230469 8.2675 451.58460938 7.375 450.85546875 C1.53465956 445.9276815 1.53465956 445.9276815 0 442 C-0.18668008 439.49668985 -0.26491158 437.10692769 -0.24609566 434.60493088 C-0.24840315 433.85378087 -0.25071064 433.10263086 -0.25308805 432.32871874 C-0.25840309 429.79870849 -0.24939353 427.26895 -0.24050903 424.73895264 C-0.24138359 422.91675761 -0.24313688 421.09456282 -0.24569702 419.27236938 C-0.25019605 414.24396637 -0.24213831 409.21564806 -0.23214546 404.1872558 C-0.22343491 398.68946991 -0.22633318 393.19168815 -0.2277813 387.69389725 C-0.22884624 377.01346421 -0.21959576 366.33306471 -0.20677864 355.6526403 C-0.19240097 343.30309149 -0.19079037 330.95356294 -0.18920898 318.60400391 C-0.17870042 285.98599727 -0.15077831 253.36799814 -0.125 220.75 C-0.08375 147.9025 -0.0425 75.055 0 0 Z " fill="#080607" transform="translate(176,174)"/>
<path d="M0 0 C0 165.66 0 331.32 0 502 C-146.52 502 -293.04 502 -444 502 C-443.14071822 497.70359109 -442.52216962 495.79759095 -440.34765625 492.2421875 C-439.81849609 491.36949219 -439.28933594 490.49679687 -438.74414062 489.59765625 C-438.18919922 488.69917969 -437.63425781 487.80070312 -437.0625 486.875 C-436.51142578 485.96878906 -435.96035156 485.06257813 -435.39257812 484.12890625 C-433.31133283 480.71495589 -431.21807846 477.32711769 -429 474 C-426.18037927 473.62740451 -426.18037927 473.62740451 -422.49133873 473.63085651 C-421.81199319 473.62739498 -421.13264766 473.62393345 -420.43271589 473.62036702 C-418.1335876 473.61236329 -415.83507709 473.6259363 -413.53598022 473.63923645 C-411.88020766 473.63792944 -410.22443569 473.63530494 -408.56866705 473.63146895 C-404.00107599 473.62473153 -399.43369425 473.63680116 -394.86612988 473.65180314 C-389.94723687 473.66471253 -385.02835646 473.66037766 -380.10945129 473.65809631 C-371.58126383 473.65652034 -363.05314502 473.66596332 -354.52497482 473.68280983 C-342.19455782 473.70715148 -329.86417414 473.71500014 -317.53373571 473.7187738 C-297.53028413 473.7253459 -277.52686918 473.74532758 -257.5234375 473.77368164 C-238.08756697 473.80120263 -218.65170638 473.82244579 -199.21582031 473.83520508 C-198.01856053 473.83599325 -196.82130075 473.83678142 -195.58776037 473.83759347 C-189.58168913 473.84150848 -183.57561782 473.84529963 -177.56954646 473.84902918 C-127.71300566 473.88014868 -77.85650461 473.93300506 -28 474 C-28.00170874 472.56822047 -28.00170874 472.56822047 -28.003452 471.10751611 C-28.07065559 414.57466707 -28.12204229 358.04182139 -28.15319599 301.50894048 C-28.15693807 294.72576819 -28.16082772 287.94259599 -28.16479492 281.15942383 C-28.1651872 280.48440873 -28.16557948 279.80939362 -28.16598364 279.11392352 C-28.17877272 257.22604213 -28.2013104 235.33818395 -28.22889166 213.45031662 C-28.25797983 190.32465908 -28.275985 167.19901535 -28.28226548 144.07333821 C-28.28638833 130.21567747 -28.29942476 116.35808332 -28.3237494 102.50044306 C-28.33956857 93.00654168 -28.34440904 83.51267488 -28.34050413 74.01876125 C-28.33857663 68.53569963 -28.34159685 63.05275464 -28.35761642 57.56971359 C-28.37216376 52.55412683 -28.37298609 47.53873567 -28.36269668 42.5231401 C-28.36142408 40.70475507 -28.36527328 38.88635807 -28.37464955 37.06799678 C-28.38662434 34.60318631 -28.38023963 32.13908932 -28.36914349 29.67429066 C-28.37702453 28.96226159 -28.38490557 28.25023251 -28.39302543 27.51662681 C-28.34852641 23.16604034 -27.61145588 20.48709917 -25 17 C-23.07055664 15.19482422 -23.07055664 15.19482422 -20.91015625 13.5546875 C-20.12576172 12.95269531 -19.34136719 12.35070312 -18.53320312 11.73046875 C-17.71787109 11.11816406 -16.90253906 10.50585938 -16.0625 9.875 C-14.84530273 8.94494141 -14.84530273 8.94494141 -13.60351562 7.99609375 C-11.408903 6.32177895 -9.20712763 4.65776668 -7 3 C-6.31478271 2.43941895 -5.62956543 1.87883789 -4.92358398 1.30126953 C-3 0 -3 0 0 0 Z " fill="#060304" transform="translate(848,347)"/>
<path d="M0 0 C1.22406052 -0.0071553 2.44812103 -0.01431061 3.70927429 -0.02168274 C5.07829259 -0.02452329 6.44731117 -0.02723499 7.81632996 -0.02983093 C9.24839443 -0.03609273 10.68045727 -0.04273927 12.11251831 -0.04974365 C16.01342403 -0.06718039 19.91431747 -0.07771275 23.81525254 -0.08594918 C26.25071506 -0.09109385 28.68617372 -0.09716983 31.12163353 -0.10346031 C38.73663006 -0.12252015 46.35161685 -0.13674938 53.96663266 -0.14507228 C62.76608496 -0.15484757 71.56528589 -0.18117121 80.36464959 -0.22157317 C87.1595827 -0.25170445 93.95444364 -0.26653832 100.74944228 -0.26985329 C104.810734 -0.27220731 108.87175743 -0.28121281 112.93297768 -0.30631447 C116.75384606 -0.32954812 120.57426865 -0.33384773 124.39518929 -0.32355309 C125.79806244 -0.32305645 127.20095718 -0.32941456 128.60376358 -0.34310913 C130.51806921 -0.3607522 132.43256727 -0.35136135 134.34692383 -0.34057617 C135.41859204 -0.34296453 136.49026026 -0.34535288 137.59440327 -0.34781361 C141.06771386 0.27295338 142.24665025 1.37050615 144.36393738 4.14717102 C144.86564636 7.36763 144.86564636 7.36763 144.86003113 11.14326477 C144.86148636 11.81382401 144.86294159 12.48438324 144.86444092 13.17526245 C144.86278518 14.58985245 144.8512599 16.00446106 144.83049011 17.41889954 C144.80157312 19.57455203 144.80987741 21.72773665 144.82292175 23.88349915 C144.76810728 35.99169109 144.76810728 35.99169109 141.36393738 40.14717102 C136.70965265 42.72705818 131.9753022 42.45357522 126.80021667 42.46601868 C125.84363663 42.4760643 124.88705658 42.48610992 123.90148926 42.49645996 C120.74705086 42.52729286 117.59269735 42.54432755 114.43815613 42.56123352 C112.24811065 42.57994506 110.05807239 42.59951846 107.86804199 42.61991882 C102.10925039 42.67124737 96.35043541 42.71086936 90.59153748 42.74806213 C83.67894832 42.79513844 76.76647521 42.85673946 69.85398102 42.91590881 C59.35734663 43.00412987 48.86073459 43.07388822 38.36393738 43.14717102 C38.36393738 64.26717102 38.36393738 85.38717102 38.36393738 107.14717102 C44.09253113 107.11236633 49.82112488 107.07756165 55.72331238 107.04170227 C59.35092673 107.02637497 62.9785012 107.01193321 66.60612488 107.00068665 C72.36499821 106.98274813 78.12372854 106.96151914 83.88249207 106.92085266 C88.52496661 106.88827394 93.16728783 106.87032111 97.80986786 106.86253929 C99.58171757 106.85699311 101.35355883 106.84616284 103.12534332 106.82998085 C105.60577579 106.80822617 108.08557341 106.80520324 110.56608582 106.80659485 C111.29976379 106.79580902 112.03344177 106.78502319 112.78935242 106.77391052 C115.87722774 106.79267532 118.06841921 106.99124133 120.82093811 108.44360352 C123.37442828 111.26281605 122.89283412 114.60359287 122.82487488 118.20967102 C122.82395844 118.99736877 122.82304199 119.78506653 122.82209778 120.59663391 C122.8160594 122.2610019 122.80030606 123.92535889 122.77555847 125.58955383 C122.73907138 128.13781249 122.73453895 130.68461604 122.73503113 133.23310852 C122.72519897 134.85030859 122.71354153 136.46749881 122.69987488 138.08467102 C122.69764923 138.84723206 122.69542358 139.60979309 122.69313049 140.39546204 C122.62540703 144.16830586 122.50719543 145.93228395 120.36393738 149.14717102 C116.74483787 150.35353752 113.44570495 150.27906158 109.67961121 150.26069641 C108.89888748 150.26084244 108.11816376 150.26098846 107.31378174 150.26113892 C104.73281579 150.26044216 102.15192197 150.25266084 99.57096863 150.24482727 C97.78163696 150.24296225 95.99230478 150.24153874 94.20297241 150.24053955 C89.49296154 150.23672101 84.78298148 150.22689635 80.07298279 150.21583557 C75.2669771 150.20560723 70.46096644 150.20103888 65.654953 150.19599915 C56.22460092 150.18527351 46.79427171 150.16820501 37.36393738 150.14717102 C37.3683786 151.32036896 37.37281982 152.49356689 37.37739563 153.70231628 C37.41787446 164.7387904 37.44788937 175.77524953 37.46756172 186.81178093 C37.47801532 192.48627177 37.49220321 198.16070286 37.51481628 203.8351593 C37.53648854 209.30754817 37.54849411 214.77987943 37.55369186 220.25230789 C37.55739775 222.34397921 37.56463401 224.43564725 37.57539749 226.52729416 C37.58983779 229.44867101 37.59191846 232.36980741 37.59098816 235.29121399 C37.59817871 236.16299286 37.60536926 237.03477173 37.61277771 237.93296814 C37.5920417 243.9190667 37.5920417 243.9190667 35.36393738 246.14717102 C32.37431634 246.34723404 29.47931388 246.42690025 26.48893738 246.41279602 C25.60866882 246.41470947 24.72840027 246.41662292 23.82145691 246.41859436 C21.95866104 246.41995654 20.09585568 246.41625784 18.233078 246.40791321 C15.37544002 246.39721409 12.51843072 246.40780734 9.66081238 246.42060852 C7.85351932 246.41928693 6.04622665 246.41672455 4.23893738 246.41279602 C3.38058289 246.41684448 2.52222839 246.42089294 1.63786316 246.42506409 C-4.40614517 246.37708847 -4.40614517 246.37708847 -6.63606262 244.14717102 C-6.88561028 242.34180158 -6.88561028 242.34180158 -6.88495159 240.10884762 C-6.88955039 239.25901709 -6.89414918 238.40918657 -6.89888734 237.53360361 C-6.89374377 236.59461098 -6.88860021 235.65561834 -6.88330078 234.68817139 C-6.8857152 233.69486488 -6.88812961 232.70155837 -6.89061719 231.67815167 C-6.89628168 228.32848511 -6.88757036 224.97900694 -6.87898254 221.62934875 C-6.88005474 219.23661751 -6.88199248 216.84388653 -6.88473511 214.45115662 C-6.88909084 208.61434696 -6.88412727 202.77758867 -6.87488481 196.9407888 C-6.86451666 190.14983115 -6.86457057 183.35888584 -6.86505739 176.56792177 C-6.86555834 164.4554102 -6.85638722 152.34292502 -6.84187317 140.23042297 C-6.82778197 128.46479309 -6.8207025 116.69918642 -6.82136536 104.93354797 C-6.82142529 103.84642436 -6.82142529 103.84642436 -6.82148644 102.73733865 C-6.82152679 102.01386832 -6.82156714 101.29039799 -6.82160872 100.54500431 C-6.8222978 87.16707277 -6.81641329 73.78915113 -6.80745551 60.4112228 C-6.80443372 55.67227481 -6.80337531 50.93332865 -6.8029232 46.19437981 C-6.80217157 39.82265825 -6.79584657 33.4509564 -6.78575706 27.07924271 C-6.78282395 24.7333917 -6.78160832 22.38753787 -6.7821846 20.0416851 C-6.78267152 16.85415915 -6.77705699 13.66670326 -6.76977539 10.47918701 C-6.77132399 9.53796366 -6.77287259 8.5967403 -6.77446812 7.62699503 C-6.74554302 0.02692756 -6.74554302 0.02692756 0 0 Z " fill="#593141" transform="translate(591.6360626220703,388.8528289794922)"/>
<path d="M0 0 C3.74944226 0.93736056 4.68115003 1.29003127 7.35546875 3.6953125 C7.97405762 4.24340576 8.59264648 4.79149902 9.22998047 5.35620117 C9.87596191 5.93990479 10.52194336 6.5236084 11.1875 7.125 C12.52571898 8.31303061 13.86555735 9.49923969 15.20703125 10.68359375 C15.85494629 11.25577637 16.50286133 11.82795898 17.17041016 12.41748047 C20.15781409 15.0014613 23.28679839 17.38255686 26.4609375 19.73046875 C28 21 28 21 29 23 C29.10524805 24.79889402 29.14660372 26.60166213 29.15821838 28.40359497 C29.16799241 29.54827806 29.17776644 30.69296116 29.18783665 31.87233162 C29.1936069 33.13923269 29.19937716 34.40613377 29.20532227 35.71142578 C29.21503468 37.07334635 29.22517998 38.43526389 29.23572445 39.79717827 C29.26281969 43.45181785 29.28397211 47.10646949 29.30391693 50.76115417 C29.3235105 54.18771939 29.34843234 57.61423763 29.3729248 61.04077148 C29.44148557 71.06881239 29.5014658 81.09691046 29.5625 91.125 C29.706875 113.52375 29.85125 135.9225 30 159 C85.11 159.33 140.22 159.66 197 160 C196.14518881 164.27405594 195.61929918 166.03264974 193.41796875 169.50390625 C192.89783203 170.32697266 192.37769531 171.15003906 191.84179688 171.99804688 C191.29587891 172.84431641 190.74996094 173.69058594 190.1875 174.5625 C189.65318359 175.41263672 189.11886719 176.26277344 188.56835938 177.13867188 C183.36971175 185.29153254 183.36971175 185.29153254 180 188 C177.41754052 188.38478406 175.26393077 188.52464861 172.68548584 188.48101807 C171.94880676 188.48444214 171.21212769 188.48786621 170.453125 188.49139404 C167.97584379 188.49801716 165.49964334 188.4759204 163.02246094 188.45410156 C161.2197587 188.45287632 159.41705455 188.45341003 157.61435318 188.45556259 C152.78282906 188.45646636 147.95170049 188.43326841 143.12026978 188.40512085 C138.5881423 188.38235597 134.05611146 188.38126922 129.52392578 188.37841797 C116.26589804 188.35742122 103.00794404 188.30157667 89.75 188.25 C60.1325 188.1675 30.515 188.085 0 188 C0 125.96 0 63.92 0 0 Z " fill="#854A68" transform="translate(176,661)"/>
<path d="M0 0 C1.22406052 -0.0071553 2.44812103 -0.01431061 3.70927429 -0.02168274 C5.07829259 -0.02452329 6.44731117 -0.02723499 7.81632996 -0.02983093 C9.24839443 -0.03609273 10.68045727 -0.04273927 12.11251831 -0.04974365 C16.01342403 -0.06718039 19.91431747 -0.07771275 23.81525254 -0.08594918 C26.25071506 -0.09109385 28.68617372 -0.09716983 31.12163353 -0.10346031 C38.73663006 -0.12252015 46.35161685 -0.13674938 53.96663266 -0.14507228 C62.76608496 -0.15484757 71.56528589 -0.18117121 80.36464959 -0.22157317 C87.1595827 -0.25170445 93.95444364 -0.26653832 100.74944228 -0.26985329 C104.810734 -0.27220731 108.87175743 -0.28121281 112.93297768 -0.30631447 C116.75384606 -0.32954812 120.57426865 -0.33384773 124.39518929 -0.32355309 C125.79806244 -0.32305645 127.20095718 -0.32941456 128.60376358 -0.34310913 C130.51806921 -0.3607522 132.43256727 -0.35136135 134.34692383 -0.34057617 C135.41859204 -0.34296453 136.49026026 -0.34535288 137.59440327 -0.34781361 C141.06771386 0.27295338 142.24665025 1.37050615 144.36393738 4.14717102 C144.86564636 7.36763 144.86564636 7.36763 144.86003113 11.14326477 C144.86148636 11.81382401 144.86294159 12.48438324 144.86444092 13.17526245 C144.86278518 14.58985245 144.8512599 16.00446106 144.83049011 17.41889954 C144.80157312 19.57455203 144.80987741 21.72773665 144.82292175 23.88349915 C144.76810728 35.99169109 144.76810728 35.99169109 141.36393738 40.14717102 C136.70965265 42.72705818 131.9753022 42.45357522 126.80021667 42.46601868 C125.84363663 42.4760643 124.88705658 42.48610992 123.90148926 42.49645996 C120.74705086 42.52729286 117.59269735 42.54432755 114.43815613 42.56123352 C112.24811065 42.57994506 110.05807239 42.59951846 107.86804199 42.61991882 C102.10925039 42.67124737 96.35043541 42.71086936 90.59153748 42.74806213 C84.71287754 42.78809714 78.83431491 42.83919181 72.95573425 42.88935852 C61.42520364 42.98612643 49.89461809 43.07052857 38.36393738 43.14717102 C38.3252655 44.3899884 38.3252655 44.3899884 38.28581238 45.65791321 C38.20073425 47.28454895 38.20073425 47.28454895 38.11393738 48.94404602 C38.06753113 50.02009094 38.02112488 51.09613586 37.97331238 52.20478821 C37.36393738 55.14717102 37.36393738 55.14717102 35.47257996 57.07563782 C33.9711853 58.01659524 32.43370561 58.90098571 30.87565613 59.74482727 C28.26921156 61.20005838 26.3555177 62.80277061 24.17643738 64.83467102 C-1.36479111 88.14717102 -1.36479111 88.14717102 -6.63606262 88.14717102 C-6.65918517 76.82105472 -6.67697726 65.49494399 -6.68787479 54.16880894 C-6.69310382 48.91020438 -6.70020181 43.65161592 -6.71150208 38.39302063 C-6.72233028 33.32263975 -6.72833931 28.2522744 -6.73093987 23.18188286 C-6.73279424 21.24290154 -6.73641508 19.30392111 -6.74179268 17.36494637 C-6.74900222 14.65895342 -6.7500536 11.95302546 -6.74958801 9.24702454 C-6.75318329 8.43710556 -6.75677856 7.62718658 -6.76048279 6.79272461 C-6.74815807 0.21728674 -6.47564002 0.02585013 0 0 Z " fill="#070407" transform="translate(591.6360626220703,388.8528289794922)"/>
<path d="M0 0 C0.66 0 1.32 0 2 0 C2.07003799 16.50691012 2.12296254 33.01377214 2.15543652 49.52079487 C2.17091459 57.18505631 2.19202196 64.8492255 2.22631836 72.51342773 C2.25619207 79.19246884 2.27556816 85.87144315 2.28226548 92.55054921 C2.28618122 96.08809278 2.29540297 99.62544523 2.31719017 103.16292763 C2.34129777 107.10906214 2.3419713 111.05500858 2.34057617 115.0012207 C2.351362 116.17797867 2.36214783 117.35473663 2.3732605 118.56715393 C2.36707451 120.17623627 2.36707451 120.17623627 2.36076355 121.81782532 C2.36352893 122.75160161 2.36629431 123.6853779 2.36914349 124.64745045 C2 127 2 127 0.72150135 128.80160809 C-2.36761196 130.95203824 -6.15685137 130.381868 -9.7890625 130.328125 C-10.64809174 130.32625183 -11.50712097 130.32437866 -12.3921814 130.32244873 C-14.20615526 130.31572977 -16.02011468 130.30181833 -17.83398438 130.28125 C-20.62122955 130.25004222 -23.4079098 130.24027426 -26.1953125 130.234375 C-27.95573611 130.22520727 -29.71615394 130.21483224 -31.4765625 130.203125 C-32.31506744 130.19887512 -33.15357239 130.19462524 -34.01748657 130.19024658 C-39.88283761 130.11716239 -39.88283761 130.11716239 -41 129 C-41.14857456 126.06016738 -41.231782 123.14298742 -41.2722168 120.20092773 C-41.28842575 119.27728928 -41.3046347 118.35365082 -41.32133484 117.40202332 C-41.46176883 108.86261098 -41.53969155 100.32214552 -41.60025311 91.78182888 C-41.64121701 86.04177586 -41.70154402 80.30342972 -41.80932617 74.56420898 C-41.91312045 69.01912079 -41.96766468 63.47555485 -41.98771095 57.92955208 C-42.00363863 55.8175255 -42.03685637 53.70555436 -42.08786583 51.59408379 C-42.46832888 35.04905417 -42.46832888 35.04905417 -38.84506226 29.99278259 C-36.3128008 27.94592525 -33.88937425 26.48017773 -31 25 C-29.64631034 23.95281179 -28.3125906 22.87839197 -27.015625 21.76171875 C-26.39695557 21.25672852 -25.77828613 20.75173828 -25.14086914 20.23144531 C-24.51688232 19.72194336 -23.89289551 19.21244141 -23.25 18.6875 C-17.30117422 13.83930341 -11.30419922 9.05831937 -5.25292969 4.33862305 C-2.53516147 2.27515327 -2.53516147 2.27515327 0 0 Z " fill="#472833" transform="translate(545,505)"/>
<path d="M0 0 C10.23 0 20.46 0 31 0 C29.68 0.33 28.36 0.66 27 1 C26.29665683 2.31435558 25.63245247 3.65010145 25 5 C23.23046875 6.484375 23.23046875 6.484375 21.1875 7.75 C20.52105469 8.17796875 19.85460937 8.6059375 19.16796875 9.046875 C16.48629019 10.22584719 14.90329592 10.43975734 12 10 C9.6484375 8.3203125 9.6484375 8.3203125 7.375 6.125 C4.95177725 3.81756264 2.79396333 1.86264222 0 0 Z " fill="#C0A7B5" transform="translate(593,635)"/>
<path d="M0 0 C0.66 0.33 1.32 0.66 2 1 C1.2884375 1.6496875 1.2884375 1.6496875 0.5625 2.3125 C-2.46337423 5.58044417 -2.14793427 9.06885991 -2.20532227 13.30737305 C-2.22526749 14.60849533 -2.24521271 15.90961761 -2.26576233 17.25016785 C-2.28274546 18.6706836 -2.29962431 20.0912006 -2.31640625 21.51171875 C-2.33698137 22.96475306 -2.35797799 24.41778146 -2.37937927 25.87080383 C-2.43454234 29.6929953 -2.48397698 33.51524026 -2.53222656 37.33752441 C-2.58248372 41.23873652 -2.63814778 45.13987105 -2.69335938 49.04101562 C-2.80087041 56.69394469 -2.90233098 64.34693833 -3 72 C-3.33 72 -3.66 72 -4 72 C-4.09262324 63.05539931 -4.16372555 54.11096334 -4.20724869 45.16598797 C-4.22813623 41.01258612 -4.25647451 36.85951202 -4.30175781 32.70629883 C-4.34517495 28.6992298 -4.36912831 24.69247627 -4.37950897 20.6851902 C-4.38690787 19.15531254 -4.40135619 17.62545242 -4.42292023 16.09570885 C-4.45190113 13.95494461 -4.45595851 11.81548894 -4.45410156 9.67456055 C-4.46298401 8.45544479 -4.47186646 7.23632904 -4.48101807 5.98027039 C-4 3 -4 3 -1.97161865 1.08283997 C-1.3209845 0.72550278 -0.67035034 0.36816559 0 0 Z " fill="#331F26" transform="translate(589,474)"/>
<path d="M0 0 C8.37988827 -0.27932961 8.37988827 -0.27932961 12 2 C12.99 2.33 13.98 2.66 15 3 C15.33 4.65 15.66 6.3 16 8 C13.2144486 8.94827282 11.85592541 9.40355468 9 9 C5.62291394 6.70229904 2.75471352 4.01082067 0 1 C0 0.67 0 0.34 0 0 Z " fill="#CFBDC6" transform="translate(596,636)"/>
</svg>
